
<svg xmlns="http://www.w3.org/2000/svg" width="420" height="60" viewBox="0 0 420 60">
<g>
<path d="M 18.00 59.38 C5.67,55.17 0.00,45.92 -0.00,30.00 C-0.00,16.72 5.21,5.73 12.98,2.62 C21.47,-0.77 32.94,1.44 35.72,7.00 C37.91,11.38 37.32,19.07 34.46,23.27 C31.61,27.46 30.23,27.81 26.96,25.17 L 24.70 23.34 L 27.35 19.44 C29.19,16.72 30.00,14.24 30.00,11.27 C30.00,5.60 27.45,3.00 21.87,3.00 C13.39,3.00 7.55,13.86 7.64,29.50 C7.72,45.26 13.67,57.40 21.29,57.40 C29.52,57.40 32.24,50.11 29.81,34.50 C29.42,31.99 32.69,31.32 35.47,33.35 C37.00,34.47 37.50,36.27 37.80,41.64 C38.12,47.55 37.85,48.98 35.83,51.95 C34.55,53.84 32.14,56.16 30.50,57.10 C27.25,58.95 20.41,60.20 18.00,59.38 ZM 61.00 58.02 C61.00,55.25 59.87,54.95 57.23,57.03 C54.49,59.19 49.02,59.62 45.85,57.92 C40.86,55.25 39.22,42.41 42.94,35.12 C45.31,30.48 48.43,28.56 55.25,27.57 L 60.00 26.88 L 60.00 16.63 C60.00,4.90 59.07,2.64 54.46,3.16 C52.37,3.40 51.11,4.35 50.12,6.42 C48.76,9.27 49.01,11.72 51.54,20.56 C51.99,22.12 51.49,22.91 49.52,23.81 C45.54,25.62 45.19,25.39 43.54,19.84 C41.65,13.44 42.82,8.03 47.00,3.84 C49.46,1.39 50.62,1.00 55.50,1.00 C60.36,1.00 61.55,1.39 63.96,3.81 L 66.77 6.61 L 67.47 27.06 C67.85,38.30 68.02,50.20 67.84,53.50 L 67.50 59.50 L 64.25 59.60 C61.83,59.67 61.00,59.27 61.00,58.02 ZM 56.85 53.66 C59.15,51.21 60.98,43.08 60.99,35.25 C61.00,31.06 60.95,31.00 57.50,31.00 C55.36,31.00 53.24,31.76 52.05,32.95 C47.85,37.15 47.06,48.38 50.57,53.75 C52.45,56.62 54.09,56.59 56.85,53.66 ZM 79.31 58.90 C74.39,57.47 72.00,53.70 72.00,47.33 C72.00,44.36 72.66,40.36 73.47,38.43 L 74.93 34.91 L 78.06 36.53 C80.59,37.84 81.06,38.57 80.51,40.33 C77.18,50.96 77.42,54.96 81.52,56.83 C85.00,58.41 85.68,58.32 88.00,56.00 C90.36,53.64 90.63,48.43 88.65,43.72 C87.90,41.95 84.52,37.12 81.14,33.00 C73.32,23.46 72.00,20.59 72.00,13.15 C72.00,8.21 72.44,6.60 74.41,4.31 C76.60,1.77 77.44,1.50 83.33,1.50 C91.14,1.50 94.46,3.85 95.52,10.14 C96.20,14.14 94.50,23.57 92.93,24.54 C91.92,25.17 85.98,22.31 86.04,21.22 C86.05,20.83 86.71,19.38 87.50,18.00 C89.46,14.57 89.42,6.56 87.43,4.57 C85.10,2.24 80.41,2.58 78.56,5.22 C75.24,9.95 77.51,16.49 86.25,27.37 C96.46,40.09 98.69,48.65 93.44,54.89 C91.35,57.37 85.27,60.29 83.00,59.90 C82.72,59.86 81.07,59.40 79.31,58.90 ZM 105.21 58.47 C99.90,56.20 98.63,51.77 99.33,38.00 C99.83,28.17 104.00,3.42 105.60,0.84 C105.88,0.38 107.48,0.72 109.16,1.58 C111.66,2.87 112.12,3.64 111.73,5.83 C111.48,7.30 110.26,13.90 109.03,20.50 C106.13,36.06 105.82,49.53 108.27,53.29 C110.35,56.47 111.94,56.68 115.04,54.17 C116.94,52.63 117.42,50.94 118.08,43.42 C118.51,38.51 118.89,26.96 118.93,17.75 L 119.00 1.00 L 122.52 1.00 L 126.03 1.00 L 125.77 30.25 L 125.50 59.50 L 122.25 59.60 C119.47,59.69 119.00,59.36 119.00,57.32 L 119.00 54.94 L 116.25 56.87 C112.35,59.60 109.01,60.09 105.21,58.47 ZM 137.77 59.29 C130.33,58.16 126.70,43.56 131.71,34.95 C134.16,30.75 139.81,27.50 144.68,27.50 L 149.00 27.50 L 149.00 17.82 C149.00,12.49 148.55,6.95 148.00,5.50 C147.13,3.22 146.51,2.92 143.25,3.19 C139.82,3.47 139.42,3.83 138.56,7.31 C137.68,10.86 138.07,13.43 140.63,21.12 C141.01,22.28 140.24,23.07 137.90,23.89 C134.15,25.19 133.62,24.73 131.96,18.74 C130.45,13.31 131.76,8.05 135.56,4.25 C138.44,1.36 139.42,1.00 144.34,1.00 C148.76,1.00 150.46,1.49 152.69,3.41 L 155.50 5.82 L 155.80 32.91 C156.06,57.28 155.93,60.00 154.48,60.00 C151.99,60.00 149.00,58.09 149.00,56.49 C149.00,55.44 148.04,55.71 145.36,57.53 C143.36,58.89 141.45,59.93 141.11,59.85 C140.77,59.77 139.27,59.51 137.77,59.29 ZM 146.08 53.42 C148.24,51.12 148.54,49.79 148.84,40.93 C149.12,32.80 148.92,30.90 147.68,30.43 C145.05,29.42 139.94,32.90 138.30,36.81 C135.43,43.69 138.11,56.00 142.48,56.00 C143.12,56.00 144.74,54.84 146.08,53.42 ZM 166.25 59.28 L 161.00 58.90 L 161.00 29.95 L 161.00 1.00 L 165.00 1.00 L 169.00 1.00 L 169.00 29.00 C169.00,54.23 169.16,57.00 170.63,57.00 C173.29,57.00 178.70,53.17 180.87,49.74 C183.35,45.82 184.27,47.35 183.81,54.63 L 183.50 59.50 L 177.50 59.59 C174.20,59.63 169.14,59.50 166.25,59.28 ZM 213.82 59.32 C212.89,59.08 211.88,57.67 211.56,56.19 C210.99,53.45 202.00,1.89 202.00,1.32 C202.00,1.14 203.54,1.00 205.43,1.00 C207.84,1.00 209.02,1.52 209.37,2.75 C209.65,3.71 211.73,14.85 214.00,27.50 C216.26,40.15 218.49,50.88 218.95,51.35 C220.24,52.64 223.22,38.59 223.77,28.61 C224.27,19.56 222.99,10.88 220.41,5.85 C218.91,2.92 219.60,1.83 223.77,0.55 C225.70,-0.04 226.26,0.39 227.52,3.39 C229.44,7.98 229.42,19.58 227.49,29.64 C224.08,47.34 219.10,60.52 216.06,59.88 C215.75,59.82 214.74,59.57 213.82,59.32 ZM 238.10 58.76 C231.53,55.32 229.09,45.11 232.82,36.67 C235.24,31.21 239.47,28.28 246.25,27.38 L 251.00 26.74 L 250.99 17.62 C250.98,12.31 250.44,7.46 249.71,6.00 C248.12,2.83 243.19,2.01 241.30,4.61 C239.55,6.99 239.66,13.93 241.50,18.35 C243.41,22.92 243.52,22.54 239.87,24.06 C237.10,25.20 236.58,25.14 235.44,23.58 C233.67,21.17 232.69,14.70 233.51,10.95 C233.89,9.24 235.55,6.31 237.20,4.43 C239.84,1.41 240.79,1.00 245.04,1.00 C251.52,1.00 254.60,2.32 256.45,5.91 C257.73,8.38 258.00,13.35 258.00,34.51 L 258.00 60.13 L 254.75 59.81 C252.27,59.57 251.43,58.97 251.18,57.27 L 250.87 55.04 L 248.18 56.97 C244.50,59.63 240.95,60.26 238.10,58.76 ZM 246.15 54.92 C249.36,53.20 251.00,47.82 251.00,39.03 L 251.00 31.00 L 247.95 31.00 C244.02,31.00 240.34,34.66 239.44,39.45 C238.46,44.71 239.47,51.76 241.54,54.04 C243.61,56.33 243.54,56.32 246.15,54.92 ZM 270.39 59.27 C264.08,58.15 260.43,48.53 263.28,40.50 C264.81,36.16 267.27,35.02 270.30,37.23 C271.96,38.45 271.98,38.81 270.55,42.24 C268.71,46.64 268.52,54.12 270.20,55.80 C272.26,57.86 277.71,57.26 279.44,54.78 C282.78,50.01 280.85,44.53 271.68,32.74 C263.56,22.30 262.00,19.20 262.00,13.50 C262.00,4.68 265.86,1.00 275.12,1.00 C279.35,1.00 280.62,1.47 283.08,3.92 C285.70,6.54 286.00,7.50 285.99,13.17 C285.97,20.58 284.29,24.65 281.44,24.17 C277.56,23.51 276.93,21.88 278.53,16.58 C281.37,7.12 279.84,3.00 273.46,3.00 C269.60,3.00 268.00,5.04 268.00,9.97 C268.00,14.70 270.16,18.92 277.53,28.58 C287.18,41.23 288.88,46.46 285.48,53.03 C283.24,57.37 276.16,60.30 270.39,59.27 ZM 297.80 32.58 C297.63,17.50 297.13,4.79 296.67,4.33 C295.87,3.54 291.85,7.51 289.31,11.59 C288.31,13.19 288.11,12.50 288.06,7.25 L 288.00 1.00 L 301.50 1.00 L 315.00 1.00 L 315.00 7.61 L 315.00 14.23 L 311.75 9.36 C305.75,0.38 305.53,1.13 305.23,32.25 L 304.97 60.00 L 301.53 60.00 L 298.09 60.00 L 297.80 32.58 ZM 317.67 59.33 C317.30,58.97 317.00,45.69 317.00,29.83 L 317.00 1.00 L 324.35 1.00 C334.48,1.00 337.44,2.21 339.95,7.40 C344.81,17.44 340.29,33.00 332.50,33.00 C328.58,33.00 329.12,34.56 338.21,49.73 C340.93,54.25 342.86,58.42 342.51,58.98 C342.17,59.54 340.17,60.00 338.07,60.00 L 334.26 60.00 L 329.38 46.25 L 324.50 32.50 L 324.22 46.25 L 323.94 60.00 L 321.14 60.00 C319.60,60.00 318.03,59.70 317.67,59.33 ZM 332.47 26.05 C334.59,21.96 334.47,11.44 332.25,7.00 C330.83,4.17 329.93,3.50 327.50,3.50 L 324.50 3.50 L 324.50 14.50 C324.50,20.55 324.82,26.29 325.22,27.25 C326.41,30.16 330.72,29.45 332.47,26.05 ZM 351.08 58.71 C346.39,56.34 344.50,52.43 344.51,45.18 C344.53,34.48 349.11,28.99 358.68,28.19 L 364.00 27.75 L 364.00 18.53 C364.00,13.45 363.51,7.88 362.90,6.15 C361.96,3.46 361.31,3.00 358.44,3.00 C356.13,3.00 354.74,3.61 354.04,4.93 C352.55,7.71 352.76,14.49 354.45,18.54 C355.85,21.88 355.81,22.08 353.46,23.62 C349.88,25.96 348.32,24.79 346.96,18.71 C344.80,9.07 348.89,2.22 357.38,1.26 C367.43,0.13 369.93,2.96 371.20,16.97 C371.68,22.21 371.77,33.81 371.41,42.75 L 370.76 59.00 L 367.38 59.00 C364.65,59.00 364.00,58.61 364.00,56.97 C364.00,54.95 363.98,54.95 361.25,56.87 C357.49,59.51 353.93,60.15 351.08,58.71 ZM 361.50 53.17 C363.34,50.10 363.80,47.55 363.90,39.87 C364.01,31.13 362.94,29.31 358.62,30.95 C352.66,33.22 350.03,44.35 353.49,52.64 C354.83,55.85 355.28,56.15 357.74,55.53 C359.26,55.15 360.95,54.09 361.50,53.17 ZM 376.00 30.50 L 376.00 1.00 L 379.50 1.00 C382.37,1.00 383.00,1.37 383.00,3.07 L 383.00 5.14 L 385.90 3.07 C389.44,0.55 394.20,0.41 398.10,2.72 C400.84,4.34 401.16,4.34 403.90,2.72 C407.46,0.61 412.84,0.50 415.65,2.47 C418.20,4.25 420.00,10.92 420.00,18.56 C420.00,29.78 414.61,58.96 412.40,59.70 C411.79,59.90 410.26,59.22 408.98,58.19 L 406.66 56.31 L 408.88 45.40 C412.60,27.20 413.68,14.69 411.96,9.71 C410.89,6.62 409.89,5.41 408.19,5.17 C403.98,4.58 403.32,6.27 402.72,19.25 C401.98,35.24 397.31,60.00 395.03,60.00 C394.59,60.00 393.17,59.15 391.89,58.11 L 389.55 56.22 L 391.78 45.36 C393.00,39.39 394.52,29.73 395.15,23.89 C396.21,14.13 396.15,12.97 394.40,9.39 C391.93,4.33 388.00,3.55 385.35,7.59 C383.80,9.95 383.52,13.47 383.17,35.15 L 382.76 60.00 L 379.38 60.00 L 376.00 60.00 L 376.00 30.50 Z" fill="black"/>
</g>
</svg>